<svg width="166.597" height="128.941" viewBox="0 0 44.079 34.116" xmlns="http://www.w3.org/2000/svg">
  <g style="fill:#666">
    <path d="M144.9 215.845h-2.352v-2.353h-23.53v2.353h2.353v2.352h-2.353v2.353h-2.353v-2.353h-2.352v23.53h2.352v2.353h2.353v2.353h23.53v-2.353h2.353v-2.353h2.353v-23.53H144.9zm-14.117 21.176v-16.47h7.059v16.47zm51.774-23.529h-25.882v2.353h2.353v2.352h-2.353v2.353h-2.353v-2.353h-2.353v23.53h2.353v2.353h2.353v2.353h25.882v-2.353h2.353v-4.706h-2.353v-2.353h-14.118v-16.47h14.118v-2.354h2.353v-2.352h-2.353z" transform="translate(-17.545 -43.787) scale(.26458)"/>
  </g>
</svg>
