<?xml version="1.0" encoding="UTF-8" standalone="no"?>
<!-- Created with Inkscape (http://www.inkscape.org/) -->

<svg
   width="1.7353898in"
   height="1.3431373in"
   viewBox="0 0 44.078902 34.115687"
   version="1.1"
   id="svg841"
   inkscape:export-xdpi="96"
   inkscape:export-ydpi="96"
   inkscape:version="1.1.2 (b8e25be8, 2022-02-05)"
   xmlns:inkscape="http://www.inkscape.org/namespaces/inkscape"
   xmlns:sodipodi="http://sodipodi.sourceforge.net/DTD/sodipodi-0.dtd"
   xmlns="http://www.w3.org/2000/svg"
   xmlns:svg="http://www.w3.org/2000/svg">
  <sodipodi:namedview
     id="namedview843"
     pagecolor="#ffffff"
     bordercolor="#666666"
     borderopacity="1.0"
     inkscape:pageshadow="2"
     inkscape:pageopacity="0.0"
     inkscape:pagecheckerboard="0"
     inkscape:document-units="mm"
     showgrid="false"
     units="in"
     fit-margin-top="0.5"
     fit-margin-left="0.5"
     fit-margin-right="0.5"
     fit-margin-bottom="0.5"
     lock-margins="true"
     inkscape:zoom="0.53362093"
     inkscape:cx="81.518541"
     inkscape:cy="40.290773"
     inkscape:window-width="1312"
     inkscape:window-height="821"
     inkscape:window-x="142"
     inkscape:window-y="51"
     inkscape:window-maximized="0"
     inkscape:current-layer="layer1" />
  <defs
     id="defs838">
    <rect
       x="114.31336"
       y="206.13884"
       width="329.82214"
       height="119.93533"
       id="rect1476" />
  </defs>
  <g
     inkscape:label="Layer 1"
     inkscape:groupmode="layer"
     id="layer1"
     transform="translate(9.2294421,8.2754489)">
    <g
       aria-label="OC"
       transform="matrix(0.26458333,0,0,0.26458333,-26.774624,-52.06177)"
       id="text1474"
       style="font-size:40px;line-height:1.25;white-space:pre;shape-inside:url(#rect1476);fill:#666666">
      <path
         d="m 144.90074,215.84455 h -2.35295 v -2.35294 h -23.52941 v 2.35294 h 2.35294 v 2.35295 h -2.35294 v 2.35294 h -2.35294 v -2.35294 h -2.35294 v 23.52941 h 2.35294 v 2.35294 h 2.35294 v 2.35294 h 23.52941 v -2.35294 h 2.35295 v -2.35294 h 2.35294 V 218.1975 h -2.35294 z m -14.11765,21.17647 v -16.47058 h 7.05882 v 16.47058 z"
         style="font-family:'04b';-inkscape-font-specification:'04b'"
         id="path8524" />
      <path
         d="m 182.55699,213.49161 h -25.88236 v 2.35294 h 2.35294 v 2.35295 h -2.35294 v 2.35294 h -2.35294 v -2.35294 h -2.35294 v 23.52941 h 2.35294 v 2.35294 h 2.35294 v 2.35294 h 25.88236 v -2.35294 h 2.35294 v -4.70588 h -2.35294 v -2.35295 h -14.11765 v -16.47058 h 14.11765 v -2.35294 h 2.35294 v -2.35295 h -2.35294 z"
         style="font-family:'04b';-inkscape-font-specification:'04b'"
         id="path8526" />
    </g>
  </g>
</svg>
