<svg width="308.531" height="112.033" viewBox="0 0 81.632 29.642" xmlns="http://www.w3.org/2000/svg">
  <path d="M13.092 5.623h-.622V5H6.244v.623h.623v.622h-.623v.623h-.622v-.623h-.623v6.226h.623v.622h.622v.623h6.226v-.623h.622v-.622h.623V6.245h-.623zm-3.735 5.603V6.868h1.868v4.358zM21.81 7.49v-.622h-.622v-.623h-5.603v.623h1.245v.622h-.623v.623h-.622V6.868h-.623v6.225h.623v.623h2.49v-.623h.622v-1.867h2.49v-.623h.623V9.98h.622V7.49zm-3.113.623h1.246V9.98h-1.246zm11.836-1.868h-6.225v.623h1.245v.622h-.623v.623h-.622v.622h1.245v4.358h.622v.623h2.49v-.623h.623V8.736h1.245v-.623h.623V6.868h-.623zm-6.225.623h-.623v1.245h.623zm11.213-.623h-2.49v.623h1.245v.622h-.623v.623h-.622V6.868h-.623v6.225h.623v.623h2.49v-.623h.622V6.868h-.622zm9.34 0h-1.246v.623h-.623v1.245h-.622v.622h-.623v-.622h-.622V6.868h-.623v-.623h-2.49v.623h1.245v.622h-.622v.623h-.623V6.868h-.623v6.225h.623v.623h2.49v-.623h.623v-2.49h.622v.623h.623v-.623h.622v2.49h.623v.623h1.245v-.623h.623V6.868h-.623zm4.984 0h-2.49v.623H48.6v.622h-.622v.623h-.623V6.868h-.622v6.225h.622v.623h2.49v-.623h.623V6.868h-.623zm8.717.623v-.623h-6.225v.623h1.245v.622h-.623v.623h-.622v.622h2.49v.623h-.623v.622h-.622v.623h-.623v.623h-.622v.622h-.623v1.245h.623v.623h6.225v-.623h.623v-1.867h-.623v-.623h-1.867V9.98h.622v-.622h.622v-.623h.623v-.622h.623V6.868zm-6.225 0h-.623v1.245h.623zm14.948 0h-.623v-.623h-4.98v.623h.623v.622h-.623v.623h-.622V7.49h-.623v4.98h.623v.623h.622v.623h4.98v-.623h.623v-.622h.622V7.49h-.622zm-1.245 4.358h-1.868V8.113h1.868zm9.968-4.358h-.623v-.623h-5.603v.623h1.245v.622h-.622v.623h-.623V6.868h-.622v6.225h.622v.623h2.49v-.623h.623v-1.867h.623v.622h.622v.623h.623v.622h.622v.623h.623v-.623h.622v-1.867h-.622v-.623h-.623V9.98h.623v-.622h.622V7.49h-.622zm-3.113 1.868v-.623h1.868v.622zm-40.187 7.19H25.86v.622h.622v.623h-.622v.622h-.623v-.622h-.622v6.225h.622v.623h.623v.622h6.848v-.622h.623v-1.245h-.623v-.623h-3.736v-4.358h3.736v-.622h.623v-.623h-.623zm8.095 6.225h-2.49v-4.358h-.623v-.622H35.2v.622h1.246v.623h-.623v.622H35.2v-1.245h-.622v6.226h.622v.622h5.603v-.622h.623v-1.245h-.623zm8.725-4.98h-1.245v.622h-.622v4.358h-1.245v-4.358h-.623v-.622h-2.49v.622h1.245v.623h-.622v.623h-.623v-1.246h-.622v5.603h.622v.623h.623v.622h4.98v-.622h.622v-.623h.623v-5.603h-.623zm8.723.622h-.622v-.622h-5.603v.622h1.245v.623h-.623v.623h-.622v-1.246h-.622v6.226h.622v.622h5.603v-.622h.622v-.623h.623v-2.49h-.623v-.622h.623v-1.868h-.623zm-1.245 4.358H55.14v-.622h1.867zm-1.867-2.49v-.622h1.867v.622z" style="fill:#666"/>
</svg>
