<?xml version="1.0" encoding="UTF-8" standalone="no"?>
<svg
   width="81.63205mm"
   height="29.641989mm"
   viewBox="0 0 81.63205 29.641989"
   version="1.1"
   id="svg5"
   inkscape:version="1.1.2 (b8e25be8, 2022-02-05)"
   xmlns:inkscape="http://www.inkscape.org/namespaces/inkscape"
   xmlns:sodipodi="http://sodipodi.sourceforge.net/DTD/sodipodi-0.dtd"
   xmlns="http://www.w3.org/2000/svg"
   xmlns:svg="http://www.w3.org/2000/svg">
  <sodipodi:namedview
     id="namedview7"
     pagecolor="#ffffff"
     bordercolor="#666666"
     borderopacity="1.0"
     inkscape:pageshadow="2"
     inkscape:pageopacity="0.0"
     inkscape:pagecheckerboard="0"
     inkscape:document-units="mm"
     showgrid="false"
     fit-margin-top="5"
     fit-margin-left="5"
     fit-margin-right="5"
     fit-margin-bottom="5"
     lock-margins="true"
     inkscape:zoom="0.51189712"
     inkscape:cx="49.814697"
     inkscape:cy="433.68089"
     inkscape:window-width="1312"
     inkscape:window-height="820"
     inkscape:window-x="0"
     inkscape:window-y="25"
     inkscape:window-maximized="0"
     inkscape:current-layer="layer1" />
  <defs
     id="defs2">
    <rect
       x="163.30972"
       y="397.95013"
       width="227.13191"
       height="120.13589"
       id="rect2851" />
    <rect
       x="127.64438"
       y="198.97507"
       width="367.91614"
       height="140.78424"
       id="rect671" />
  </defs>
  <g
     inkscape:label="Layer 1"
     inkscape:groupmode="layer"
     id="layer1"
     transform="translate(-1.3786018,-4.1064302)">
    <g
       aria-label="Optimizor"
       transform="matrix(0.26458333,0,0,0.26458333,-27.394013,-45.4844)"
       id="text669"
       style="font-size:40px;line-height:1.25;white-space:pre;shape-inside:url(#rect671)">
      <path
         d="m 158.23277,208.68049 h -2.35294 v -2.35294 h -23.52942 v 2.35294 h 2.35294 v 2.35294 h -2.35294 v 2.35294 h -2.35294 v -2.35294 h -2.35294 v 23.52941 h 2.35294 v 2.35295 h 2.35294 v 2.35294 h 23.52942 v -2.35294 h 2.35294 v -2.35295 h 2.35294 v -23.52941 h -2.35294 z m -14.11765,21.17647 v -16.47059 h 7.05882 v 16.47059 z"
         style="font-family:'04b';-inkscape-font-specification:'04b';fill:#666"
         id="path15861" />
      <path
         d="m 191.18313,215.73932 v -2.35295 h -2.35294 v -2.35294 h -21.17647 v 2.35294 h 4.70588 v 2.35295 h -2.35294 v 2.35294 h -2.35294 v -4.70589 h -2.35294 v 23.52942 h 2.35294 v 2.35294 h 9.41177 v -2.35294 h 2.35294 v -7.05883 h 9.41176 v -2.35294 h 2.35294 v -2.35294 h 2.35295 v -9.41176 z m -11.7647,2.35294 h 4.70588 v 7.05882 h -4.70588 z"
         style="font-family:'04b';-inkscape-font-specification:'04b';fill:#666"
         id="path15863" />
      <path
         d="m 224.15188,211.03343 h -23.52941 v 2.35294 h 4.70588 v 2.35295 h -2.35294 v 2.35294 h -2.35294 v 2.35294 h 4.70588 v 16.47059 h 2.35295 v 2.35294 h 9.41176 v -2.35294 H 219.446 V 220.4452 h 4.70588 v -2.35294 h 2.35295 v -4.70589 h -2.35295 z m -23.52941,2.35294 h -2.35294 v 4.70589 h 2.35294 z"
         style="font-family:'04b';-inkscape-font-specification:'04b';fill:#666"
         id="path15865" />
      <path
         d="m 243.00299,211.03343 h -9.41177 v 2.35294 h 4.70588 v 2.35295 h -2.35294 v 2.35294 h -2.35294 v -4.70589 h -2.35294 v 23.52942 h 2.35294 v 2.35294 h 9.41177 v -2.35294 h 2.35294 v -23.52942 h -2.35294 z"
         style="font-family:'04b';-inkscape-font-specification:'04b';fill:#666"
         id="path15867" />
      <path
         d="m 278.3017,211.03343 h -4.70588 v 2.35294 h -2.35294 v 4.70589 h -2.35294 v 2.35294 h -2.35295 v -2.35294 h -2.35294 v -4.70589 h -2.35294 v -2.35294 h -9.41176 v 2.35294 h 4.70588 v 2.35295 h -2.35294 v 2.35294 h -2.35294 v -4.70589 h -2.35294 v 23.52942 h 2.35294 v 2.35294 h 9.41176 v -2.35294 h 2.35294 v -9.41177 h 2.35294 v 2.35294 h 2.35295 v -2.35294 h 2.35294 v 9.41177 h 2.35294 v 2.35294 h 4.70588 v -2.35294 h 2.35294 v -23.52942 h -2.35294 z"
         style="font-family:'04b';-inkscape-font-specification:'04b';fill:#666"
         id="path15869" />
      <path
         d="m 297.14361,211.03343 h -9.41176 v 2.35294 h 4.70588 v 2.35295 h -2.35294 v 2.35294 h -2.35294 v -4.70589 h -2.35294 v 23.52942 h 2.35294 v 2.35294 h 9.41176 v -2.35294 h 2.35294 v -23.52942 h -2.35294 z"
         style="font-family:'04b';-inkscape-font-specification:'04b';fill:#666"
         id="path15871" />
      <path
         d="m 330.08938,213.38637 v -2.35294 h -23.52941 v 2.35294 h 4.70588 v 2.35295 h -2.35294 v 2.35294 h -2.35294 v 2.35294 h 9.41177 v 2.35294 h -2.35294 v 2.35294 h -2.35295 v 2.35294 h -2.35294 v 2.35294 h -2.35294 v 2.35294 h -2.35294 v 4.70589 h 2.35294 v 2.35294 h 23.52941 v -2.35294 h 2.35295 v -7.05883 h -2.35295 v -2.35294 h -7.05882 v -2.35294 h 2.35294 v -2.35294 h 2.35294 v -2.35294 h 2.35294 v -2.35294 h 2.35295 v -4.70589 z m -23.52941,0 h -2.35294 v 4.70589 h 2.35294 z"
         style="font-family:'04b';-inkscape-font-specification:'04b';fill:#666"
         id="path15873" />
      <path
         d="m 363.05813,213.38637 h -2.35294 v -2.35294 h -18.82353 v 2.35294 h 2.35294 v 2.35295 h -2.35294 v 2.35294 h -2.35294 v -2.35294 h -2.35294 v 18.82352 h 2.35294 v 2.35295 h 2.35294 v 2.35294 h 18.82353 v -2.35294 h 2.35294 v -2.35295 h 2.35295 v -18.82352 h -2.35295 z m -4.70588,16.47059 h -7.05882 v -11.7647 h 7.05882 z"
         style="font-family:'04b';-inkscape-font-specification:'04b';fill:#666"
         id="path15875" />
      <path
         d="m 396.02688,213.38637 h -2.35294 v -2.35294 h -21.17647 v 2.35294 h 4.70588 v 2.35295 h -2.35294 v 2.35294 h -2.35294 v -4.70589 h -2.35294 v 23.52942 h 2.35294 v 2.35294 h 9.41177 v -2.35294 h 2.35294 v -7.05883 h 2.35294 v 2.35294 h 2.35294 v 2.35294 h 2.35294 v 2.35295 h 2.35294 v 2.35294 h 2.35294 v -2.35294 h 2.35295 v -7.05883 h -2.35295 v -2.35294 h -2.35294 v -2.35294 h 2.35294 v -2.35294 h 2.35295 v -7.05882 h -2.35295 z m -11.7647,7.05883 v -2.35294 h 7.05882 v 2.35294 z"
         style="font-family:'04b';-inkscape-font-specification:'04b';fill:#666"
         id="path15877" />
    </g>
    <g
       aria-label="Club"
       transform="matrix(0.26458333,0,0,0.26458333,-17.215424,-87.203464)"
       id="text2849"
       style="font-size:40px;line-height:1.25;white-space:pre;shape-inside:url(#rect2851)">
      <path
         d="m 193.89878,405.30216 h -25.88235 v 2.35294 h 2.35294 v 2.35294 h -2.35294 v 2.35294 h -2.35294 v -2.35294 h -2.35294 v 23.52941 h 2.35294 v 2.35295 h 2.35294 v 2.35294 h 25.88235 v -2.35294 h 2.35294 v -4.70589 h -2.35294 v -2.35294 h -14.11764 v -16.47059 h 14.11764 v -2.35294 h 2.35294 v -2.35294 h -2.35294 z"
         style="font-family:'04b';-inkscape-font-specification:'04b';fill:#666"
         id="path15880" />
      <path
         d="m 224.49621,428.83157 h -9.41177 v -16.47059 h -2.35294 v -2.35294 h -9.41176 v 2.35294 h 4.70588 v 2.35294 h -2.35294 v 2.35295 h -2.35294 v -4.70589 h -2.35294 v 23.52942 h 2.35294 v 2.35294 h 21.17647 v -2.35294 h 2.35294 v -4.70589 h -2.35294 z"
         style="font-family:'04b';-inkscape-font-specification:'04b';fill:#666"
         id="path15882" />
      <path
         d="m 257.47415,410.00804 h -4.70588 v 2.35294 h -2.35294 v 16.47059 h -4.70589 v -16.47059 h -2.35294 v -2.35294 h -9.41176 v 2.35294 h 4.70588 v 2.35294 h -2.35294 v 2.35295 h -2.35294 v -4.70589 h -2.35294 v 21.17647 h 2.35294 v 2.35295 h 2.35294 v 2.35294 h 18.82353 v -2.35294 h 2.35294 v -2.35295 h 2.35294 v -21.17647 h -2.35294 z"
         style="font-family:'04b';-inkscape-font-specification:'04b';fill:#666"
         id="path15884" />
      <path
         d="m 290.4429,412.36098 h -2.35294 v -2.35294 h -21.17647 v 2.35294 h 4.70588 v 2.35294 h -2.35294 v 2.35295 h -2.35294 v -4.70589 h -2.35294 v 23.52942 h 2.35294 v 2.35294 h 21.17647 v -2.35294 h 2.35294 v -2.35295 h 2.35294 v -9.41176 h -2.35294 v -2.35294 h 2.35294 v -7.05883 h -2.35294 z m -4.70588,16.47059 h -7.05883 v -2.35294 h 7.05883 z m -7.05883,-9.41176 v -2.35294 h 7.05883 v 2.35294 z"
         style="font-family:'04b';-inkscape-font-specification:'04b';fill:#666"
         id="path15886" />
    </g>
  </g>
</svg>
